<svg width="36" height="36" viewBox="0 0 36 36" fill="none" xmlns="http://www.w3.org/2000/svg">
<path d="M25.0444 16.7269L25.0709 16.7327H13.6953L17.2714 13.1488C17.4465 12.9738 17.5426 12.7368 17.5426 12.488C17.5426 12.2392 17.4465 12.0038 17.2714 11.8284L16.715 11.2717C16.54 11.0967 16.3068 11 16.0582 11C15.8094 11 15.5761 11.0961 15.4011 11.271L9.27104 17.4006C9.09537 17.5762 8.99931 17.8102 9 18.0591C8.99931 18.3094 9.09537 18.5436 9.27104 18.719L15.4011 24.8491C15.5761 25.0239 15.8093 25.1201 16.0582 25.1201C16.3068 25.1201 16.54 25.0238 16.715 24.8491L17.2714 24.2923C17.4465 24.1176 17.5426 23.8843 17.5426 23.6356C17.5426 23.3869 17.4465 23.1659 17.2714 22.9911L13.655 19.3871H25.0571C25.5695 19.3871 26 18.9455 26 18.4334V17.646C26 17.134 25.5568 16.7269 25.0444 16.7269Z" fill="#C9C9C9"/>
</svg>
